<mxfile host="Electron" modified="2024-01-08T10:01:46.399Z" agent="Mozilla/5.0 (Windows NT 10.0; Win64; x64) AppleWebKit/537.36 (KHTML, like Gecko) draw.io/21.4.0 Chrome/112.0.5615.204 Electron/24.5.1 Safari/537.36" etag="NQx3MXgIIGAu4xMY88uS" version="21.4.0" type="device" pages="2">
  <diagram name="api-server-class" id="kc9x2lo6H-75C2MYU1yd">
    <mxGraphModel dx="1562" dy="917" grid="1" gridSize="10" guides="1" tooltips="1" connect="1" arrows="1" fold="1" page="1" pageScale="1" pageWidth="827" pageHeight="1169" math="0" shadow="0">
      <root>
        <mxCell id="0" />
        <mxCell id="1" parent="0" />
        <mxCell id="JHcO2tIwE3XTsrZ-1QhT-1" value="RESTStorageProvider" style="swimlane;fontStyle=1;align=center;verticalAlign=top;childLayout=stackLayout;horizontal=1;startSize=26;horizontalStack=0;resizeParent=1;resizeParentMax=0;resizeLast=0;collapsible=1;marginBottom=0;whiteSpace=wrap;html=1;sketch=1;hachureGap=4;jiggle=2;curveFitting=1;fontFamily=Architects Daughter;fontSource=https%3A%2F%2Ffonts.googleapis.com%2Fcss%3Ffamily%3DArchitects%2BDaughter;fontSize=20;" vertex="1" parent="1">
          <mxGeometry x="220" y="585" width="360" height="80" as="geometry" />
        </mxCell>
        <mxCell id="JHcO2tIwE3XTsrZ-1QhT-3" value="" style="line;strokeWidth=1;fillColor=none;align=left;verticalAlign=middle;spacingTop=-1;spacingLeft=3;spacingRight=3;rotatable=0;labelPosition=right;points=[];portConstraint=eastwest;strokeColor=inherit;sketch=1;hachureGap=4;jiggle=2;curveFitting=1;fontFamily=Architects Daughter;fontSource=https%3A%2F%2Ffonts.googleapis.com%2Fcss%3Ffamily%3DArchitects%2BDaughter;fontSize=20;" vertex="1" parent="JHcO2tIwE3XTsrZ-1QhT-1">
          <mxGeometry y="26" width="360" height="8" as="geometry" />
        </mxCell>
        <mxCell id="JHcO2tIwE3XTsrZ-1QhT-4" value="+ NewRESTStorage(type): type" style="text;strokeColor=none;fillColor=none;align=left;verticalAlign=top;spacingLeft=4;spacingRight=4;overflow=hidden;rotatable=0;points=[[0,0.5],[1,0.5]];portConstraint=eastwest;whiteSpace=wrap;html=1;fontSize=20;fontFamily=Architects Daughter;" vertex="1" parent="JHcO2tIwE3XTsrZ-1QhT-1">
          <mxGeometry y="34" width="360" height="46" as="geometry" />
        </mxCell>
        <mxCell id="JHcO2tIwE3XTsrZ-1QhT-5" value="CompletedConfig" style="swimlane;fontStyle=1;align=center;verticalAlign=top;childLayout=stackLayout;horizontal=1;startSize=26;horizontalStack=0;resizeParent=1;resizeParentMax=0;resizeLast=0;collapsible=1;marginBottom=0;whiteSpace=wrap;html=1;sketch=1;hachureGap=4;jiggle=2;curveFitting=1;fontFamily=Architects Daughter;fontSource=https%3A%2F%2Ffonts.googleapis.com%2Fcss%3Ffamily%3DArchitects%2BDaughter;fontSize=20;" vertex="1" parent="1">
          <mxGeometry x="210" y="280" width="780" height="164" as="geometry" />
        </mxCell>
        <mxCell id="JHcO2tIwE3XTsrZ-1QhT-6" value="&lt;div&gt;+ Aggregator:&amp;nbsp; &amp;nbsp; aggregatorapiserver.CompletedConfig&lt;/div&gt;&lt;div&gt;+ ControlPlane:&amp;nbsp; controlplane.CompletedConfig&lt;/div&gt;&lt;div&gt;+ ApiExtensions: apiextensionsapiserver.CompletedConfig&lt;/div&gt;" style="text;strokeColor=none;fillColor=none;align=left;verticalAlign=top;spacingLeft=4;spacingRight=4;overflow=hidden;rotatable=0;points=[[0,0.5],[1,0.5]];portConstraint=eastwest;whiteSpace=wrap;html=1;fontSize=20;fontFamily=Architects Daughter;" vertex="1" parent="JHcO2tIwE3XTsrZ-1QhT-5">
          <mxGeometry y="26" width="780" height="104" as="geometry" />
        </mxCell>
        <mxCell id="JHcO2tIwE3XTsrZ-1QhT-7" value="" style="line;strokeWidth=1;fillColor=none;align=left;verticalAlign=middle;spacingTop=-1;spacingLeft=3;spacingRight=3;rotatable=0;labelPosition=right;points=[];portConstraint=eastwest;strokeColor=inherit;sketch=1;hachureGap=4;jiggle=2;curveFitting=1;fontFamily=Architects Daughter;fontSource=https%3A%2F%2Ffonts.googleapis.com%2Fcss%3Ffamily%3DArchitects%2BDaughter;fontSize=20;" vertex="1" parent="JHcO2tIwE3XTsrZ-1QhT-5">
          <mxGeometry y="130" width="780" height="8" as="geometry" />
        </mxCell>
        <mxCell id="JHcO2tIwE3XTsrZ-1QhT-8" value="+ method(type): type" style="text;strokeColor=none;fillColor=none;align=left;verticalAlign=top;spacingLeft=4;spacingRight=4;overflow=hidden;rotatable=0;points=[[0,0.5],[1,0.5]];portConstraint=eastwest;whiteSpace=wrap;html=1;fontSize=20;fontFamily=Architects Daughter;" vertex="1" parent="JHcO2tIwE3XTsrZ-1QhT-5">
          <mxGeometry y="138" width="780" height="26" as="geometry" />
        </mxCell>
        <mxCell id="JHcO2tIwE3XTsrZ-1QhT-9" value="app.Config" style="swimlane;fontStyle=1;align=center;verticalAlign=top;childLayout=stackLayout;horizontal=1;startSize=26;horizontalStack=0;resizeParent=1;resizeParentMax=0;resizeLast=0;collapsible=1;marginBottom=0;whiteSpace=wrap;html=1;sketch=1;hachureGap=4;jiggle=2;curveFitting=1;fontFamily=Architects Daughter;fontSource=https%3A%2F%2Ffonts.googleapis.com%2Fcss%3Ffamily%3DArchitects%2BDaughter;fontSize=20;" vertex="1" parent="1">
          <mxGeometry x="370" y="20" width="540" height="144" as="geometry" />
        </mxCell>
        <mxCell id="JHcO2tIwE3XTsrZ-1QhT-10" value="&lt;div&gt;+ Aggregator:&amp;nbsp; &amp;nbsp; *aggregatorapiserver.Config&lt;/div&gt;&lt;div&gt;+ ControlPlane:&amp;nbsp; *controlplane.Config&lt;/div&gt;&lt;div&gt;+ ApiExtensions: *apiextensionsapiserver.Config&lt;/div&gt;" style="text;strokeColor=none;fillColor=none;align=left;verticalAlign=top;spacingLeft=4;spacingRight=4;overflow=hidden;rotatable=0;points=[[0,0.5],[1,0.5]];portConstraint=eastwest;whiteSpace=wrap;html=1;fontSize=20;fontFamily=Architects Daughter;" vertex="1" parent="JHcO2tIwE3XTsrZ-1QhT-9">
          <mxGeometry y="26" width="540" height="84" as="geometry" />
        </mxCell>
        <mxCell id="JHcO2tIwE3XTsrZ-1QhT-11" value="" style="line;strokeWidth=1;fillColor=none;align=left;verticalAlign=middle;spacingTop=-1;spacingLeft=3;spacingRight=3;rotatable=0;labelPosition=right;points=[];portConstraint=eastwest;strokeColor=inherit;sketch=1;hachureGap=4;jiggle=2;curveFitting=1;fontFamily=Architects Daughter;fontSource=https%3A%2F%2Ffonts.googleapis.com%2Fcss%3Ffamily%3DArchitects%2BDaughter;fontSize=20;" vertex="1" parent="JHcO2tIwE3XTsrZ-1QhT-9">
          <mxGeometry y="110" width="540" height="8" as="geometry" />
        </mxCell>
        <mxCell id="JHcO2tIwE3XTsrZ-1QhT-12" value="+ method(type): type" style="text;strokeColor=none;fillColor=none;align=left;verticalAlign=top;spacingLeft=4;spacingRight=4;overflow=hidden;rotatable=0;points=[[0,0.5],[1,0.5]];portConstraint=eastwest;whiteSpace=wrap;html=1;fontSize=20;fontFamily=Architects Daughter;" vertex="1" parent="JHcO2tIwE3XTsrZ-1QhT-9">
          <mxGeometry y="118" width="540" height="26" as="geometry" />
        </mxCell>
      </root>
    </mxGraphModel>
  </diagram>
  <diagram id="30iA2SozCSW8acdaCS1l" name="第 2 页">
    <mxGraphModel dx="1562" dy="917" grid="1" gridSize="10" guides="1" tooltips="1" connect="1" arrows="1" fold="1" page="1" pageScale="1" pageWidth="827" pageHeight="1169" math="0" shadow="0">
      <root>
        <mxCell id="0" />
        <mxCell id="1" parent="0" />
        <mxCell id="3yHrZYNNl7kTUIvjRW0V-1" value="CreateServerChain(Config)" style="rounded=0;whiteSpace=wrap;html=1;sketch=1;hachureGap=4;jiggle=2;curveFitting=1;fontFamily=Architects Daughter;fontSource=https%3A%2F%2Ffonts.googleapis.com%2Fcss%3Ffamily%3DArchitects%2BDaughter;fontSize=20;" vertex="1" parent="1">
          <mxGeometry x="334" y="250" width="276" height="50" as="geometry" />
        </mxCell>
        <mxCell id="3yHrZYNNl7kTUIvjRW0V-5" value="" style="edgeStyle=orthogonalEdgeStyle;rounded=0;sketch=1;hachureGap=4;jiggle=2;curveFitting=1;orthogonalLoop=1;jettySize=auto;html=1;fontFamily=Architects Daughter;fontSource=https%3A%2F%2Ffonts.googleapis.com%2Fcss%3Ffamily%3DArchitects%2BDaughter;fontSize=16;" edge="1" parent="1" source="3yHrZYNNl7kTUIvjRW0V-2" target="3yHrZYNNl7kTUIvjRW0V-4">
          <mxGeometry relative="1" as="geometry" />
        </mxCell>
        <mxCell id="3yHrZYNNl7kTUIvjRW0V-2" value="APIAggregator" style="rounded=0;whiteSpace=wrap;html=1;sketch=1;hachureGap=4;jiggle=2;curveFitting=1;fontFamily=Architects Daughter;fontSource=https%3A%2F%2Ffonts.googleapis.com%2Fcss%3Ffamily%3DArchitects%2BDaughter;fontSize=20;" vertex="1" parent="1">
          <mxGeometry x="354" y="520" width="236" height="50" as="geometry" />
        </mxCell>
        <mxCell id="3yHrZYNNl7kTUIvjRW0V-7" value="" style="edgeStyle=orthogonalEdgeStyle;rounded=0;sketch=1;hachureGap=4;jiggle=2;curveFitting=1;orthogonalLoop=1;jettySize=auto;html=1;fontFamily=Architects Daughter;fontSource=https%3A%2F%2Ffonts.googleapis.com%2Fcss%3Ffamily%3DArchitects%2BDaughter;fontSize=16;" edge="1" parent="1" source="3yHrZYNNl7kTUIvjRW0V-4" target="3yHrZYNNl7kTUIvjRW0V-6">
          <mxGeometry relative="1" as="geometry" />
        </mxCell>
        <mxCell id="3yHrZYNNl7kTUIvjRW0V-4" value="APIAggregator.PrepareRun()" style="rounded=0;whiteSpace=wrap;html=1;sketch=1;hachureGap=4;jiggle=2;curveFitting=1;fontFamily=Architects Daughter;fontSource=https%3A%2F%2Ffonts.googleapis.com%2Fcss%3Ffamily%3DArchitects%2BDaughter;fontSize=20;" vertex="1" parent="1">
          <mxGeometry x="309" y="650" width="326" height="50" as="geometry" />
        </mxCell>
        <mxCell id="3yHrZYNNl7kTUIvjRW0V-6" value="prepared.Run()" style="rounded=0;whiteSpace=wrap;html=1;sketch=1;hachureGap=4;jiggle=2;curveFitting=1;fontFamily=Architects Daughter;fontSource=https%3A%2F%2Ffonts.googleapis.com%2Fcss%3Ffamily%3DArchitects%2BDaughter;fontSize=20;" vertex="1" parent="1">
          <mxGeometry x="354" y="780" width="236" height="50" as="geometry" />
        </mxCell>
        <mxCell id="3yHrZYNNl7kTUIvjRW0V-8" value="config.ControlPlane.New" style="rounded=0;whiteSpace=wrap;html=1;sketch=1;hachureGap=4;jiggle=2;curveFitting=1;fontFamily=Architects Daughter;fontSource=https%3A%2F%2Ffonts.googleapis.com%2Fcss%3Ffamily%3DArchitects%2BDaughter;fontSize=20;" vertex="1" parent="1">
          <mxGeometry x="50" y="390" width="236" height="50" as="geometry" />
        </mxCell>
      </root>
    </mxGraphModel>
  </diagram>
</mxfile>
